<svg width="1396" height="812" viewBox="0 0 1396 812" fill="none" xmlns="http://www.w3.org/2000/svg">
<path d="M27.9113 289.91C31.5438 309.888 45.4916 379.276 72.1445 379.276C72.1445 401.966 56.573 404.176 63.623 427.088C75.5839 465.961 73.2595 511.283 73.2595 552.079C73.2595 581.291 78.5518 613.687 88.5645 641.075C103.581 682.15 134.369 706.132 175.86 718.45C189.023 722.358 202.558 725.773 214.972 731.771C222.383 735.351 229.555 741.317 237.646 743.391C254.465 747.704 272.071 749.376 288.946 753.595C334.405 764.959 377.875 773.721 425.274 771.451C468.674 769.372 512.278 767.69 555.367 761.814C592.37 756.768 630.709 749.368 668.17 752.178C710.86 755.379 752.814 763.179 795.145 768.9C821.849 772.508 847.696 780.668 874.221 784.205C883.714 785.471 893.338 784.179 902.847 785.338C918.036 787.191 932.167 793.282 947.061 796.392C974.159 802.05 1003.57 798.83 1030.96 796.959C1069.09 794.353 1100.14 778.346 1134.41 763.798L1135.78 763.217C1154.07 755.458 1175.12 746.532 1185.99 729.22C1192.55 718.766 1200.92 710.618 1206.4 699.46C1218.2 675.405 1228.64 650.719 1241.54 627.187C1249.29 613.051 1252.85 599.009 1256.75 583.616L1256.85 583.256C1263.07 558.696 1275.61 536.332 1279.24 510.982C1282.61 487.33 1293.49 460.156 1290.57 436.441C1289.11 424.497 1289.02 414.097 1292.56 402.147C1296.96 387.298 1295.31 366.449 1307.3 355.665C1316.51 347.372 1328.54 340.369 1338.47 332.707C1356.29 318.964 1368.78 298.659 1374.75 277.156C1392.34 213.819 1389.62 146.175 1335.92 100.582C1316.5 84.0879 1301.83 69.13 1279.8 57.7845C1260.12 47.6453 1236.31 44.4779 1214.61 37.9447C1191.57 31.0063 1168.14 24.4249 1144.04 22.6397C1122.24 21.0245 1100.59 19.5616 1078.85 16.9712C1065.19 15.3419 1049.31 10.5397 1035.49 12.4364C1022.53 14.2147 1004.78 12.0968 992.693 17.538C978.187 24.0654 962.693 29.1777 947.628 34.827C920.072 45.1606 888.439 48.666 859.766 54.3834C838.363 58.6511 817.017 62.6798 795.145 62.8862C765.603 63.1649 734.397 71.9558 705.299 66.0039C659.57 56.6501 613.844 45.2783 568.121 36.811C516.032 27.165 463.937 19.4303 410.253 18.9552C328.532 18.232 233.605 11.8441 157.153 48.9983C135.427 59.5569 113.747 69.1045 91.6821 78.758C72.0148 87.3625 52.0855 103.702 37.5478 119.004C19.4903 138.012 17.8292 163.721 12.6064 187.877C10.8306 196.09 13.2843 211.584 15.724 219.621C22.8144 242.977 23.5819 266.098 27.9113 289.91Z" fill="white" stroke="#7FB738" stroke-width="23" stroke-linecap="round"/>
<path d="M204.438 207.75C204.438 213.583 203.688 218.854 202.188 223.562C200.688 228.229 198.583 232.396 195.875 236.062C193.208 239.688 190.021 242.812 186.312 245.438C182.604 248.062 178.542 250.229 174.125 251.938C169.708 253.604 165 254.854 160 255.688C155.042 256.479 149.938 256.875 144.688 256.875C142.729 256.875 140.812 256.833 138.938 256.75C137.062 256.625 135.146 256.458 133.188 256.25L134.938 172.375C139.521 170.917 144.229 169.896 149.062 169.312C153.938 168.688 158.771 168.375 163.562 168.375C169.521 168.375 175 169.271 180 171.062C185 172.854 189.312 175.438 192.938 178.812C196.562 182.188 199.375 186.312 201.375 191.188C203.417 196.062 204.438 201.583 204.438 207.75ZM178.812 211.75C178.854 209.5 178.604 207.333 178.062 205.25C177.562 203.167 176.708 201.333 175.5 199.75C174.333 198.125 172.833 196.833 171 195.875C169.167 194.875 166.979 194.333 164.438 194.25L161.938 233C164.438 232.625 166.708 231.812 168.75 230.562C170.792 229.271 172.542 227.708 174 225.875C175.5 224 176.646 221.938 177.438 219.688C178.271 217.396 178.729 215.042 178.812 212.625V211.75Z" fill="#7FB738"/>
<path d="M285.5 209.5C285.5 213.292 285.062 216.958 284.188 220.5C283.312 224 282.042 227.292 280.375 230.375C278.75 233.458 276.75 236.292 274.375 238.875C272.042 241.417 269.396 243.604 266.438 245.438C263.521 247.271 260.333 248.708 256.875 249.75C253.417 250.75 249.75 251.25 245.875 251.25C242.125 251.25 238.542 250.771 235.125 249.812C231.75 248.854 228.583 247.521 225.625 245.812C222.667 244.062 219.979 241.979 217.562 239.562C215.188 237.104 213.146 234.396 211.438 231.438C209.771 228.438 208.458 225.229 207.5 221.812C206.583 218.396 206.125 214.833 206.125 211.125C206.125 207.5 206.562 203.958 207.438 200.5C208.312 197 209.562 193.708 211.188 190.625C212.854 187.542 214.854 184.708 217.188 182.125C219.521 179.542 222.125 177.312 225 175.438C227.917 173.562 231.062 172.104 234.438 171.062C237.812 170.021 241.375 169.5 245.125 169.5C251.167 169.5 256.667 170.438 261.625 172.312C266.625 174.188 270.875 176.875 274.375 180.375C277.917 183.833 280.646 188.042 282.562 193C284.521 197.917 285.5 203.417 285.5 209.5ZM257.75 211.125C257.75 209.333 257.479 207.604 256.938 205.938C256.438 204.229 255.688 202.729 254.688 201.438C253.688 200.104 252.438 199.042 250.938 198.25C249.479 197.417 247.792 197 245.875 197C243.917 197 242.167 197.354 240.625 198.062C239.083 198.771 237.75 199.75 236.625 201C235.542 202.208 234.708 203.646 234.125 205.312C233.542 206.938 233.25 208.667 233.25 210.5C233.25 212.25 233.5 214 234 215.75C234.5 217.5 235.25 219.083 236.25 220.5C237.25 221.917 238.479 223.062 239.938 223.938C241.438 224.812 243.167 225.25 245.125 225.25C247.083 225.25 248.833 224.875 250.375 224.125C251.958 223.333 253.292 222.292 254.375 221C255.458 219.667 256.292 218.146 256.875 216.438C257.458 214.729 257.75 212.958 257.75 211.125Z" fill="#7FB738"/>
<path d="M366.688 225.75C366.688 230.458 366.625 235.125 366.5 239.75C366.417 244.333 366.271 248.958 366.062 253.625L330.062 253C331.312 245.625 332.396 238.271 333.312 230.938C334.229 223.562 334.688 216.125 334.688 208.625C334.688 208.083 334.667 207.208 334.625 206C334.583 204.792 334.5 203.438 334.375 201.938C334.25 200.396 334.062 198.833 333.812 197.25C333.604 195.625 333.292 194.146 332.875 192.812C332.5 191.479 332.021 190.396 331.438 189.562C330.896 188.688 330.229 188.25 329.438 188.25C328.021 188.25 326.812 188.667 325.812 189.5C324.854 190.333 324.042 191.417 323.375 192.75C322.75 194.042 322.25 195.5 321.875 197.125C321.5 198.75 321.208 200.375 321 202C320.833 203.625 320.708 205.167 320.625 206.625C320.583 208.042 320.562 209.208 320.562 210.125C320.354 217.5 320.188 224.833 320.062 232.125C319.938 239.375 319.771 246.708 319.562 254.125L287.688 255.5C288.521 240.792 289.312 226.167 290.062 211.625C290.854 197.083 291.479 182.458 291.938 167.75L321.438 166.25L321.188 176.25C322.354 174.833 323.604 173.5 324.938 172.25C326.312 171 327.771 169.938 329.312 169.062C330.854 168.146 332.479 167.438 334.188 166.938C335.938 166.396 337.771 166.125 339.688 166.125C343.229 166.125 346.333 166.708 349 167.875C351.667 169.042 353.958 170.625 355.875 172.625C357.792 174.625 359.396 177 360.688 179.75C361.979 182.458 363.021 185.354 363.812 188.438C364.604 191.521 365.208 194.75 365.625 198.125C366.042 201.458 366.312 204.75 366.438 208C366.604 211.25 366.688 214.396 366.688 217.438C366.688 220.479 366.688 223.25 366.688 225.75Z" fill="#7FB738"/>
<path d="M395.312 178.5C395.271 180.458 394.833 182.625 394 185C393.208 187.375 392.062 189.729 390.562 192.062C389.062 194.354 387.25 196.542 385.125 198.625C383.042 200.667 380.688 202.375 378.062 203.75C378.062 203.708 378.042 203.229 378 202.312C377.958 201.354 377.896 200.208 377.812 198.875C377.771 197.5 377.708 196.042 377.625 194.5C377.542 192.958 377.479 191.583 377.438 190.375C374.854 189.417 372.812 187.812 371.312 185.562C369.812 183.312 369.062 180.833 369.062 178.125C369.062 176.333 369.396 174.646 370.062 173.062C370.771 171.479 371.708 170.104 372.875 168.938C374.083 167.729 375.479 166.771 377.062 166.062C378.646 165.354 380.354 165 382.188 165C383.979 165 385.667 165.354 387.25 166.062C388.875 166.771 390.271 167.729 391.438 168.938C392.646 170.104 393.604 171.479 394.312 173.062C395.021 174.646 395.354 176.333 395.312 178.125V178.5Z" fill="#7FB738"/>
<path d="M466.812 169.25L466.188 195.75L447.562 196.5L445.312 254.5L418.938 255.875L416.562 197.875L397.938 198.875L398.688 169.375L466.812 169.25Z" fill="#7FB738"/>
<path d="M604.625 215C604.625 220.958 604.438 226.896 604.062 232.812C603.688 238.729 603.25 244.667 602.75 250.625L570.625 252.125C571.583 244.875 572.438 237.625 573.188 230.375C573.979 223.083 574.375 215.792 574.375 208.5C574.375 208.042 574.354 207.25 574.312 206.125C574.271 204.958 574.188 203.646 574.062 202.188C573.979 200.729 573.833 199.229 573.625 197.688C573.458 196.104 573.208 194.667 572.875 193.375C572.583 192.042 572.208 190.958 571.75 190.125C571.292 189.292 570.75 188.875 570.125 188.875C568.667 188.875 567.521 189.438 566.688 190.562C565.854 191.646 565.229 192.958 564.812 194.5C564.438 196.042 564.208 197.625 564.125 199.25C564.042 200.833 564 202.125 564 203.125C564 204.875 564.042 206.625 564.125 208.375C564.208 210.125 564.25 211.917 564.25 213.75C564.25 220.208 564.083 226.646 563.75 233.062C563.458 239.479 563.083 245.917 562.625 252.375L533 253.5C533.958 246.25 534.792 239.021 535.5 231.812C536.25 224.562 536.625 217.292 536.625 210C536.625 209.542 536.604 208.708 536.562 207.5C536.521 206.292 536.438 204.938 536.312 203.438C536.229 201.938 536.083 200.375 535.875 198.75C535.667 197.125 535.396 195.646 535.062 194.312C534.771 192.938 534.396 191.812 533.938 190.938C533.479 190.062 532.917 189.625 532.25 189.625C531.208 189.625 530.333 190.042 529.625 190.875C528.917 191.667 528.333 192.708 527.875 194C527.458 195.292 527.125 196.729 526.875 198.312C526.667 199.854 526.5 201.375 526.375 202.875C526.292 204.375 526.229 205.771 526.188 207.062C526.188 208.312 526.167 209.25 526.125 209.875L524.75 255.5H493.25C493.917 248.458 494.583 241.396 495.25 234.312C495.958 227.229 496.562 220.167 497.062 213.125C497.604 206.042 498.042 198.958 498.375 191.875C498.708 184.792 498.875 177.708 498.875 170.625L528.625 169.375L528.5 176.625C529.417 175.458 530.458 174.292 531.625 173.125C532.792 171.917 534.021 170.854 535.312 169.938C536.646 168.979 538.042 168.208 539.5 167.625C541 167.042 542.542 166.75 544.125 166.75C546.167 166.75 548 166.917 549.625 167.25C551.25 167.542 552.708 168.062 554 168.812C555.333 169.562 556.5 170.604 557.5 171.938C558.5 173.229 559.375 174.875 560.125 176.875C561.458 175.417 562.792 174.062 564.125 172.812C565.5 171.562 566.938 170.5 568.438 169.625C569.938 168.708 571.562 168 573.312 167.5C575.062 167 577 166.75 579.125 166.75C583.167 166.75 586.604 167.542 589.438 169.125C592.271 170.667 594.625 172.729 596.5 175.312C598.417 177.896 599.896 180.854 600.938 184.188C602.021 187.521 602.833 190.979 603.375 194.562C603.917 198.146 604.25 201.708 604.375 205.25C604.542 208.792 604.625 212.042 604.625 215Z" fill="#7FB738"/>
<path d="M643 169.375L638.625 254.5L612.25 255.875L609.75 171.125L643 169.375Z" fill="#7FB738"/>
<path d="M712.188 225.375C712.188 231.083 711.188 236.021 709.188 240.188C707.229 244.312 704.521 247.729 701.062 250.438C697.646 253.104 693.625 255.083 689 256.375C684.417 257.625 679.479 258.25 674.188 258.25C672.146 258.25 669.896 257.979 667.438 257.438C665.021 256.896 662.562 256.229 660.062 255.438C657.562 254.604 655.146 253.729 652.812 252.812C650.521 251.854 648.479 250.958 646.688 250.125L649.438 225.625C652.979 227.75 656.896 229.375 661.188 230.5C665.521 231.583 669.771 232.125 673.938 232.125C674.729 232.125 675.688 232.104 676.812 232.062C677.938 231.979 679 231.792 680 231.5C681.042 231.167 681.917 230.688 682.625 230.062C683.333 229.438 683.688 228.542 683.688 227.375C683.688 226.583 683.438 225.917 682.938 225.375C682.438 224.792 681.792 224.333 681 224C680.208 223.625 679.312 223.354 678.312 223.188C677.312 222.979 676.333 222.833 675.375 222.75C674.417 222.667 673.521 222.625 672.688 222.625C671.854 222.625 671.188 222.625 670.688 222.625C667.104 222.625 663.833 222.062 660.875 220.938C657.958 219.812 655.438 218.229 653.312 216.188C651.229 214.104 649.604 211.604 648.438 208.688C647.271 205.729 646.688 202.458 646.688 198.875C646.688 193.958 647.667 189.562 649.625 185.688C651.625 181.771 654.271 178.458 657.562 175.75C660.896 173 664.708 170.896 669 169.438C673.292 167.979 677.729 167.25 682.312 167.25C684.354 167.25 686.458 167.333 688.625 167.5C690.792 167.625 692.938 167.875 695.062 168.25C697.229 168.625 699.333 169.104 701.375 169.688C703.417 170.271 705.354 171 707.188 171.875L704.812 197.25C701.979 196.292 699 195.5 695.875 194.875C692.792 194.208 689.771 193.875 686.812 193.875C686.271 193.875 685.562 193.896 684.688 193.938C683.854 193.938 682.958 194 682 194.125C681.083 194.208 680.146 194.354 679.188 194.562C678.229 194.771 677.375 195.062 676.625 195.438C675.875 195.771 675.271 196.229 674.812 196.812C674.354 197.396 674.146 198.083 674.188 198.875C674.229 199.792 674.562 200.5 675.188 201C675.854 201.5 676.688 201.875 677.688 202.125C678.729 202.333 679.854 202.438 681.062 202.438C682.312 202.438 683.542 202.417 684.75 202.375C685.958 202.292 687.083 202.229 688.125 202.188C689.167 202.104 690.021 202.083 690.688 202.125C694.021 202.333 697.021 203.042 699.688 204.25C702.354 205.458 704.604 207.062 706.438 209.062C708.312 211.062 709.729 213.458 710.688 216.25C711.688 219 712.188 222.042 712.188 225.375Z" fill="#7FB738"/>
<path d="M779.688 225.375C779.688 231.083 778.688 236.021 776.688 240.188C774.729 244.312 772.021 247.729 768.562 250.438C765.146 253.104 761.125 255.083 756.5 256.375C751.917 257.625 746.979 258.25 741.688 258.25C739.646 258.25 737.396 257.979 734.938 257.438C732.521 256.896 730.062 256.229 727.562 255.438C725.062 254.604 722.646 253.729 720.312 252.812C718.021 251.854 715.979 250.958 714.188 250.125L716.938 225.625C720.479 227.75 724.396 229.375 728.688 230.5C733.021 231.583 737.271 232.125 741.438 232.125C742.229 232.125 743.188 232.104 744.312 232.062C745.438 231.979 746.5 231.792 747.5 231.5C748.542 231.167 749.417 230.688 750.125 230.062C750.833 229.438 751.188 228.542 751.188 227.375C751.188 226.583 750.938 225.917 750.438 225.375C749.938 224.792 749.292 224.333 748.5 224C747.708 223.625 746.812 223.354 745.812 223.188C744.812 222.979 743.833 222.833 742.875 222.75C741.917 222.667 741.021 222.625 740.188 222.625C739.354 222.625 738.688 222.625 738.188 222.625C734.604 222.625 731.333 222.062 728.375 220.938C725.458 219.812 722.938 218.229 720.812 216.188C718.729 214.104 717.104 211.604 715.938 208.688C714.771 205.729 714.188 202.458 714.188 198.875C714.188 193.958 715.167 189.562 717.125 185.688C719.125 181.771 721.771 178.458 725.062 175.75C728.396 173 732.208 170.896 736.5 169.438C740.792 167.979 745.229 167.25 749.812 167.25C751.854 167.25 753.958 167.333 756.125 167.5C758.292 167.625 760.438 167.875 762.562 168.25C764.729 168.625 766.833 169.104 768.875 169.688C770.917 170.271 772.854 171 774.688 171.875L772.312 197.25C769.479 196.292 766.5 195.5 763.375 194.875C760.292 194.208 757.271 193.875 754.312 193.875C753.771 193.875 753.062 193.896 752.188 193.938C751.354 193.938 750.458 194 749.5 194.125C748.583 194.208 747.646 194.354 746.688 194.562C745.729 194.771 744.875 195.062 744.125 195.438C743.375 195.771 742.771 196.229 742.312 196.812C741.854 197.396 741.646 198.083 741.688 198.875C741.729 199.792 742.062 200.5 742.688 201C743.354 201.5 744.188 201.875 745.188 202.125C746.229 202.333 747.354 202.438 748.562 202.438C749.812 202.438 751.042 202.417 752.25 202.375C753.458 202.292 754.583 202.229 755.625 202.188C756.667 202.104 757.521 202.083 758.188 202.125C761.521 202.333 764.521 203.042 767.188 204.25C769.854 205.458 772.104 207.062 773.938 209.062C775.812 211.062 777.229 213.458 778.188 216.25C779.188 219 779.688 222.042 779.688 225.375Z" fill="#7FB738"/>
<path d="M886 209.5C886 213.292 885.562 216.958 884.688 220.5C883.812 224 882.542 227.292 880.875 230.375C879.25 233.458 877.25 236.292 874.875 238.875C872.542 241.417 869.896 243.604 866.938 245.438C864.021 247.271 860.833 248.708 857.375 249.75C853.917 250.75 850.25 251.25 846.375 251.25C842.625 251.25 839.042 250.771 835.625 249.812C832.25 248.854 829.083 247.521 826.125 245.812C823.167 244.062 820.479 241.979 818.062 239.562C815.688 237.104 813.646 234.396 811.938 231.438C810.271 228.438 808.958 225.229 808 221.812C807.083 218.396 806.625 214.833 806.625 211.125C806.625 207.5 807.062 203.958 807.938 200.5C808.812 197 810.062 193.708 811.688 190.625C813.354 187.542 815.354 184.708 817.688 182.125C820.021 179.542 822.625 177.312 825.5 175.438C828.417 173.562 831.562 172.104 834.938 171.062C838.312 170.021 841.875 169.5 845.625 169.5C851.667 169.5 857.167 170.438 862.125 172.312C867.125 174.188 871.375 176.875 874.875 180.375C878.417 183.833 881.146 188.042 883.062 193C885.021 197.917 886 203.417 886 209.5ZM858.25 211.125C858.25 209.333 857.979 207.604 857.438 205.938C856.938 204.229 856.188 202.729 855.188 201.438C854.188 200.104 852.938 199.042 851.438 198.25C849.979 197.417 848.292 197 846.375 197C844.417 197 842.667 197.354 841.125 198.062C839.583 198.771 838.25 199.75 837.125 201C836.042 202.208 835.208 203.646 834.625 205.312C834.042 206.938 833.75 208.667 833.75 210.5C833.75 212.25 834 214 834.5 215.75C835 217.5 835.75 219.083 836.75 220.5C837.75 221.917 838.979 223.062 840.438 223.938C841.938 224.812 843.667 225.25 845.625 225.25C847.583 225.25 849.333 224.875 850.875 224.125C852.458 223.333 853.792 222.292 854.875 221C855.958 219.667 856.792 218.146 857.375 216.438C857.958 214.729 858.25 212.958 858.25 211.125Z" fill="#7FB738"/>
<path d="M964.875 169.375C963 184.042 961.396 198.646 960.062 213.188C958.729 227.688 957.458 242.292 956.25 257L930.625 258.875L931.75 249.25C930.917 250.208 929.938 251.042 928.812 251.75C927.729 252.458 926.562 253.042 925.312 253.5C924.062 253.917 922.771 254.229 921.438 254.438C920.104 254.604 918.833 254.667 917.625 254.625C914.792 254.583 912.125 254.042 909.625 253C907.125 251.917 904.833 250.5 902.75 248.75C900.667 246.958 898.792 244.896 897.125 242.562C895.458 240.188 894.042 237.708 892.875 235.125C891.75 232.5 890.875 229.833 890.25 227.125C889.667 224.417 889.375 221.792 889.375 219.25C889.375 215.5 889.438 211.625 889.562 207.625C889.729 203.583 890 199.542 890.375 195.5C890.75 191.458 891.229 187.458 891.812 183.5C892.438 179.542 893.208 175.75 894.125 172.125C899.208 172.375 904.312 172.604 909.438 172.812C914.562 173.021 919.667 173.083 924.75 173C923.792 176.625 922.833 180.271 921.875 183.938C920.958 187.562 920.125 191.229 919.375 194.938C918.625 198.604 918.021 202.292 917.562 206C917.104 209.708 916.875 213.458 916.875 217.25C916.875 218.125 916.917 219.375 917 221C917.083 222.625 917.292 224.229 917.625 225.812C918 227.396 918.542 228.792 919.25 230C920 231.167 921.042 231.75 922.375 231.75C923.958 231.75 925.375 231.083 926.625 229.75C927.875 228.375 928.979 226.542 929.938 224.25C930.896 221.958 931.708 219.312 932.375 216.312C933.083 213.312 933.667 210.188 934.125 206.938C934.625 203.646 935.021 200.333 935.312 197C935.604 193.667 935.812 190.542 935.938 187.625C936.104 184.667 936.208 182.021 936.25 179.688C936.333 177.354 936.375 175.542 936.375 174.25C936.375 173.417 936.354 172.604 936.312 171.812C936.271 171.021 936.208 170.208 936.125 169.375C938.833 169.458 941.521 169.521 944.188 169.562C946.854 169.604 949.542 169.625 952.25 169.625C954.333 169.625 956.417 169.625 958.5 169.625C960.625 169.583 962.75 169.5 964.875 169.375Z" fill="#7FB738"/>
<path d="M1034.81 169.25L1034.19 195.75L1015.56 196.5L1013.31 254.5L986.938 255.875L984.562 197.875L965.938 198.875L966.688 169.375L1034.81 169.25Z" fill="#7FB738"/>
<path d="M1140.62 209.5C1140.62 213.292 1140.19 216.958 1139.31 220.5C1138.44 224 1137.17 227.292 1135.5 230.375C1133.88 233.458 1131.88 236.292 1129.5 238.875C1127.17 241.417 1124.52 243.604 1121.56 245.438C1118.65 247.271 1115.46 248.708 1112 249.75C1108.54 250.75 1104.88 251.25 1101 251.25C1097.25 251.25 1093.67 250.771 1090.25 249.812C1086.88 248.854 1083.71 247.521 1080.75 245.812C1077.79 244.062 1075.1 241.979 1072.69 239.562C1070.31 237.104 1068.27 234.396 1066.56 231.438C1064.9 228.438 1063.58 225.229 1062.62 221.812C1061.71 218.396 1061.25 214.833 1061.25 211.125C1061.25 207.5 1061.69 203.958 1062.56 200.5C1063.44 197 1064.69 193.708 1066.31 190.625C1067.98 187.542 1069.98 184.708 1072.31 182.125C1074.65 179.542 1077.25 177.312 1080.12 175.438C1083.04 173.562 1086.19 172.104 1089.56 171.062C1092.94 170.021 1096.5 169.5 1100.25 169.5C1106.29 169.5 1111.79 170.438 1116.75 172.312C1121.75 174.188 1126 176.875 1129.5 180.375C1133.04 183.833 1135.77 188.042 1137.69 193C1139.65 197.917 1140.62 203.417 1140.62 209.5ZM1112.88 211.125C1112.88 209.333 1112.6 207.604 1112.06 205.938C1111.56 204.229 1110.81 202.729 1109.81 201.438C1108.81 200.104 1107.56 199.042 1106.06 198.25C1104.6 197.417 1102.92 197 1101 197C1099.04 197 1097.29 197.354 1095.75 198.062C1094.21 198.771 1092.88 199.75 1091.75 201C1090.67 202.208 1089.83 203.646 1089.25 205.312C1088.67 206.938 1088.38 208.667 1088.38 210.5C1088.38 212.25 1088.62 214 1089.12 215.75C1089.62 217.5 1090.38 219.083 1091.38 220.5C1092.38 221.917 1093.6 223.062 1095.06 223.938C1096.56 224.812 1098.29 225.25 1100.25 225.25C1102.21 225.25 1103.96 224.875 1105.5 224.125C1107.08 223.333 1108.42 222.292 1109.5 221C1110.58 219.667 1111.42 218.146 1112 216.438C1112.58 214.729 1112.88 212.958 1112.88 211.125Z" fill="#7FB738"/>
<path d="M1221.81 225.75C1221.81 230.458 1221.75 235.125 1221.62 239.75C1221.54 244.333 1221.4 248.958 1221.19 253.625L1185.19 253C1186.44 245.625 1187.52 238.271 1188.44 230.938C1189.35 223.562 1189.81 216.125 1189.81 208.625C1189.81 208.083 1189.79 207.208 1189.75 206C1189.71 204.792 1189.62 203.438 1189.5 201.938C1189.38 200.396 1189.19 198.833 1188.94 197.25C1188.73 195.625 1188.42 194.146 1188 192.812C1187.62 191.479 1187.15 190.396 1186.56 189.562C1186.02 188.688 1185.35 188.25 1184.56 188.25C1183.15 188.25 1181.94 188.667 1180.94 189.5C1179.98 190.333 1179.17 191.417 1178.5 192.75C1177.88 194.042 1177.38 195.5 1177 197.125C1176.62 198.75 1176.33 200.375 1176.12 202C1175.96 203.625 1175.83 205.167 1175.75 206.625C1175.71 208.042 1175.69 209.208 1175.69 210.125C1175.48 217.5 1175.31 224.833 1175.19 232.125C1175.06 239.375 1174.9 246.708 1174.69 254.125L1142.81 255.5C1143.65 240.792 1144.44 226.167 1145.19 211.625C1145.98 197.083 1146.6 182.458 1147.06 167.75L1176.56 166.25L1176.31 176.25C1177.48 174.833 1178.73 173.5 1180.06 172.25C1181.44 171 1182.9 169.938 1184.44 169.062C1185.98 168.146 1187.6 167.438 1189.31 166.938C1191.06 166.396 1192.9 166.125 1194.81 166.125C1198.35 166.125 1201.46 166.708 1204.12 167.875C1206.79 169.042 1209.08 170.625 1211 172.625C1212.92 174.625 1214.52 177 1215.81 179.75C1217.1 182.458 1218.15 185.354 1218.94 188.438C1219.73 191.521 1220.33 194.75 1220.75 198.125C1221.17 201.458 1221.44 204.75 1221.56 208C1221.73 211.25 1221.81 214.396 1221.81 217.438C1221.81 220.479 1221.81 223.25 1221.81 225.75Z" fill="#7FB738"/>
<path d="M310.5 297.25L309.875 323.75L291.25 324.5L289 382.5L262.625 383.875L260.25 325.875L241.625 326.875L242.375 297.375L310.5 297.25Z" fill="#7FB738"/>
<path d="M388.25 382.875L357 384.375L356.75 358H342.375L341.5 385.375H313.5L315.875 297.5L345.625 298.875L343.75 343.75H357.625L357.75 296.75L386.25 297.5L388.25 382.875Z" fill="#7FB738"/>
<path d="M463.938 334.875C463.938 338.5 463.688 342.125 463.188 345.75C456.062 346.208 448.979 346.958 441.938 348C434.896 349 427.854 350 420.812 351C421.896 354 423.583 356.396 425.875 358.188C428.208 359.979 430.979 360.875 434.188 360.875C435.854 360.875 437.667 360.562 439.625 359.938C441.625 359.312 443.604 358.542 445.562 357.625C447.521 356.667 449.396 355.646 451.188 354.562C452.979 353.479 454.521 352.5 455.812 351.625L452.812 380C451.188 381.25 449.417 382.312 447.5 383.188C445.625 384.062 443.667 384.771 441.625 385.312C439.583 385.854 437.521 386.25 435.438 386.5C433.354 386.75 431.312 386.875 429.312 386.875C425.188 386.875 421.417 386.312 418 385.188C414.583 384.062 411.479 382.5 408.688 380.5C405.938 378.458 403.521 376.062 401.438 373.312C399.354 370.562 397.625 367.562 396.25 364.312C394.875 361.062 393.833 357.625 393.125 354C392.417 350.375 392.062 346.708 392.062 343C392.062 339.125 392.417 335.25 393.125 331.375C393.833 327.5 394.896 323.771 396.312 320.188C397.771 316.604 399.583 313.292 401.75 310.25C403.958 307.167 406.521 304.479 409.438 302.188C412.354 299.896 415.646 298.104 419.312 296.812C423.021 295.521 427.104 294.875 431.562 294.875C435.271 294.875 438.646 295.396 441.688 296.438C444.771 297.438 447.5 298.854 449.875 300.688C452.292 302.479 454.375 304.625 456.125 307.125C457.917 309.625 459.375 312.375 460.5 315.375C461.667 318.333 462.521 321.479 463.062 324.812C463.646 328.104 463.938 331.458 463.938 334.875ZM438.938 331.625C438.938 330.458 438.812 329.271 438.562 328.062C438.312 326.812 437.896 325.688 437.312 324.688C436.771 323.688 436.042 322.875 435.125 322.25C434.208 321.583 433.062 321.25 431.688 321.25C430.021 321.25 428.542 321.708 427.25 322.625C426 323.5 424.917 324.625 424 326C423.083 327.333 422.333 328.792 421.75 330.375C421.167 331.958 420.729 333.417 420.438 334.75L438.938 333V331.625Z" fill="#7FB738"/>
<path d="M552.688 300L550.438 326.375C549.229 326.042 548.042 325.812 546.875 325.688C545.708 325.562 544.521 325.5 543.312 325.5C540.354 325.5 537.521 325.875 534.812 326.625C532.146 327.375 529.771 328.521 527.688 330.062C525.646 331.604 524 333.562 522.75 335.938C521.542 338.271 520.938 341.042 520.938 344.25C520.938 346.583 521.271 348.625 521.938 350.375C522.646 352.083 523.625 353.521 524.875 354.688C526.167 355.812 527.708 356.667 529.5 357.25C531.333 357.833 533.354 358.125 535.562 358.125C537.104 358.125 538.688 357.979 540.312 357.688C541.938 357.354 543.562 356.917 545.188 356.375C546.812 355.833 548.375 355.208 549.875 354.5C551.375 353.792 552.771 353.042 554.062 352.25L553.062 381.625C551.438 382.458 549.688 383.208 547.812 383.875C545.938 384.5 544 385.042 542 385.5C540.042 386 538.062 386.375 536.062 386.625C534.104 386.875 532.229 387 530.438 387C524.521 387 519.125 385.896 514.25 383.688C509.417 381.479 505.25 378.479 501.75 374.688C498.292 370.854 495.604 366.417 493.688 361.375C491.771 356.333 490.812 350.958 490.812 345.25C490.812 338.417 491.771 332.042 493.688 326.125C495.646 320.208 498.5 315.083 502.25 310.75C506.042 306.375 510.708 302.958 516.25 300.5C521.833 298 528.229 296.75 535.438 296.75C538.312 296.75 541.229 296.979 544.188 297.438C547.146 297.896 549.979 298.75 552.688 300Z" fill="#7FB738"/>
<path d="M632.875 382.875L601.625 384.375L601.375 358H587L586.125 385.375H558.125L560.5 297.5L590.25 298.875L588.375 343.75H602.25L602.375 296.75L630.875 297.5L632.875 382.875Z" fill="#7FB738"/>
<path d="M717.625 380L686.625 384L682.875 369.875H668.625L665.5 384L633.625 380.875L658.5 297.625L693.25 295.875L717.625 380ZM680.625 350.75L675.875 329L671.25 350.75H680.625Z" fill="#7FB738"/>
<path d="M796.5 353.75C796.5 358.458 796.438 363.125 796.312 367.75C796.229 372.333 796.083 376.958 795.875 381.625L759.875 381C761.125 373.625 762.208 366.271 763.125 358.938C764.042 351.562 764.5 344.125 764.5 336.625C764.5 336.083 764.479 335.208 764.438 334C764.396 332.792 764.312 331.438 764.188 329.938C764.062 328.396 763.875 326.833 763.625 325.25C763.417 323.625 763.104 322.146 762.688 320.812C762.312 319.479 761.833 318.396 761.25 317.562C760.708 316.688 760.042 316.25 759.25 316.25C757.833 316.25 756.625 316.667 755.625 317.5C754.667 318.333 753.854 319.417 753.188 320.75C752.562 322.042 752.062 323.5 751.688 325.125C751.312 326.75 751.021 328.375 750.812 330C750.646 331.625 750.521 333.167 750.438 334.625C750.396 336.042 750.375 337.208 750.375 338.125C750.167 345.5 750 352.833 749.875 360.125C749.75 367.375 749.583 374.708 749.375 382.125L717.5 383.5C718.333 368.792 719.125 354.167 719.875 339.625C720.667 325.083 721.292 310.458 721.75 295.75L751.25 294.25L751 304.25C752.167 302.833 753.417 301.5 754.75 300.25C756.125 299 757.583 297.938 759.125 297.062C760.667 296.146 762.292 295.438 764 294.938C765.75 294.396 767.583 294.125 769.5 294.125C773.042 294.125 776.146 294.708 778.812 295.875C781.479 297.042 783.771 298.625 785.688 300.625C787.604 302.625 789.208 305 790.5 307.75C791.792 310.458 792.833 313.354 793.625 316.438C794.417 319.521 795.021 322.75 795.438 326.125C795.854 329.458 796.125 332.75 796.25 336C796.417 339.25 796.5 342.396 796.5 345.438C796.5 348.479 796.5 351.25 796.5 353.75Z" fill="#7FB738"/>
<path d="M862.062 300L859.812 326.375C858.604 326.042 857.417 325.812 856.25 325.688C855.083 325.562 853.896 325.5 852.688 325.5C849.729 325.5 846.896 325.875 844.188 326.625C841.521 327.375 839.146 328.521 837.062 330.062C835.021 331.604 833.375 333.562 832.125 335.938C830.917 338.271 830.312 341.042 830.312 344.25C830.312 346.583 830.646 348.625 831.312 350.375C832.021 352.083 833 353.521 834.25 354.688C835.542 355.812 837.083 356.667 838.875 357.25C840.708 357.833 842.729 358.125 844.938 358.125C846.479 358.125 848.062 357.979 849.688 357.688C851.312 357.354 852.938 356.917 854.562 356.375C856.188 355.833 857.75 355.208 859.25 354.5C860.75 353.792 862.146 353.042 863.438 352.25L862.438 381.625C860.812 382.458 859.062 383.208 857.188 383.875C855.312 384.5 853.375 385.042 851.375 385.5C849.417 386 847.438 386.375 845.438 386.625C843.479 386.875 841.604 387 839.812 387C833.896 387 828.5 385.896 823.625 383.688C818.792 381.479 814.625 378.479 811.125 374.688C807.667 370.854 804.979 366.417 803.062 361.375C801.146 356.333 800.188 350.958 800.188 345.25C800.188 338.417 801.146 332.042 803.062 326.125C805.021 320.208 807.875 315.083 811.625 310.75C815.417 306.375 820.083 302.958 825.625 300.5C831.208 298 837.604 296.75 844.812 296.75C847.688 296.75 850.604 296.979 853.562 297.438C856.521 297.896 859.354 298.75 862.062 300Z" fill="#7FB738"/>
<path d="M937.812 334.875C937.812 338.5 937.562 342.125 937.062 345.75C929.938 346.208 922.854 346.958 915.812 348C908.771 349 901.729 350 894.688 351C895.771 354 897.458 356.396 899.75 358.188C902.083 359.979 904.854 360.875 908.062 360.875C909.729 360.875 911.542 360.562 913.5 359.938C915.5 359.312 917.479 358.542 919.438 357.625C921.396 356.667 923.271 355.646 925.062 354.562C926.854 353.479 928.396 352.5 929.688 351.625L926.688 380C925.062 381.25 923.292 382.312 921.375 383.188C919.5 384.062 917.542 384.771 915.5 385.312C913.458 385.854 911.396 386.25 909.312 386.5C907.229 386.75 905.188 386.875 903.188 386.875C899.062 386.875 895.292 386.312 891.875 385.188C888.458 384.062 885.354 382.5 882.562 380.5C879.812 378.458 877.396 376.062 875.312 373.312C873.229 370.562 871.5 367.562 870.125 364.312C868.75 361.062 867.708 357.625 867 354C866.292 350.375 865.938 346.708 865.938 343C865.938 339.125 866.292 335.25 867 331.375C867.708 327.5 868.771 323.771 870.188 320.188C871.646 316.604 873.458 313.292 875.625 310.25C877.833 307.167 880.396 304.479 883.312 302.188C886.229 299.896 889.521 298.104 893.188 296.812C896.896 295.521 900.979 294.875 905.438 294.875C909.146 294.875 912.521 295.396 915.562 296.438C918.646 297.438 921.375 298.854 923.75 300.688C926.167 302.479 928.25 304.625 930 307.125C931.792 309.625 933.25 312.375 934.375 315.375C935.542 318.333 936.396 321.479 936.938 324.812C937.521 328.104 937.812 331.458 937.812 334.875ZM912.812 331.625C912.812 330.458 912.688 329.271 912.438 328.062C912.188 326.812 911.771 325.688 911.188 324.688C910.646 323.688 909.917 322.875 909 322.25C908.083 321.583 906.938 321.25 905.562 321.25C903.896 321.25 902.417 321.708 901.125 322.625C899.875 323.5 898.792 324.625 897.875 326C896.958 327.333 896.208 328.792 895.625 330.375C895.042 331.958 894.604 333.417 894.312 334.75L912.812 333V331.625Z" fill="#7FB738"/>
<path d="M1033.12 297.25L1032.5 323.75L1013.88 324.5L1011.62 382.5L985.25 383.875L982.875 325.875L964.25 326.875L965 297.375L1033.12 297.25Z" fill="#7FB738"/>
<path d="M1112.69 337.5C1112.69 341.292 1112.25 344.958 1111.38 348.5C1110.5 352 1109.23 355.292 1107.56 358.375C1105.94 361.458 1103.94 364.292 1101.56 366.875C1099.23 369.417 1096.58 371.604 1093.62 373.438C1090.71 375.271 1087.52 376.708 1084.06 377.75C1080.6 378.75 1076.94 379.25 1073.06 379.25C1069.31 379.25 1065.73 378.771 1062.31 377.812C1058.94 376.854 1055.77 375.521 1052.81 373.812C1049.85 372.062 1047.17 369.979 1044.75 367.562C1042.38 365.104 1040.33 362.396 1038.62 359.438C1036.96 356.438 1035.65 353.229 1034.69 349.812C1033.77 346.396 1033.31 342.833 1033.31 339.125C1033.31 335.5 1033.75 331.958 1034.62 328.5C1035.5 325 1036.75 321.708 1038.38 318.625C1040.04 315.542 1042.04 312.708 1044.38 310.125C1046.71 307.542 1049.31 305.312 1052.19 303.438C1055.1 301.562 1058.25 300.104 1061.62 299.062C1065 298.021 1068.56 297.5 1072.31 297.5C1078.35 297.5 1083.85 298.438 1088.81 300.312C1093.81 302.188 1098.06 304.875 1101.56 308.375C1105.1 311.833 1107.83 316.042 1109.75 321C1111.71 325.917 1112.69 331.417 1112.69 337.5ZM1084.94 339.125C1084.94 337.333 1084.67 335.604 1084.12 333.938C1083.62 332.229 1082.88 330.729 1081.88 329.438C1080.88 328.104 1079.62 327.042 1078.12 326.25C1076.67 325.417 1074.98 325 1073.06 325C1071.1 325 1069.35 325.354 1067.81 326.062C1066.27 326.771 1064.94 327.75 1063.81 329C1062.73 330.208 1061.9 331.646 1061.31 333.312C1060.73 334.938 1060.44 336.667 1060.44 338.5C1060.44 340.25 1060.69 342 1061.19 343.75C1061.69 345.5 1062.44 347.083 1063.44 348.5C1064.44 349.917 1065.67 351.062 1067.12 351.938C1068.62 352.812 1070.35 353.25 1072.31 353.25C1074.27 353.25 1076.02 352.875 1077.56 352.125C1079.15 351.333 1080.48 350.292 1081.56 349C1082.65 347.667 1083.48 346.146 1084.06 344.438C1084.65 342.729 1084.94 340.958 1084.94 339.125Z" fill="#7FB738"/>
<path d="M228.25 461.875C228.25 464.333 228.25 466.771 228.25 469.188C228.25 471.604 228.125 474.042 227.875 476.5C227.417 481.708 226.292 486.646 224.5 491.312C222.708 495.938 220.271 500 217.188 503.5C214.146 507 210.438 509.771 206.062 511.812C201.688 513.854 196.667 514.875 191 514.875C188.792 514.875 186.479 514.688 184.062 514.312C181.688 513.938 179.312 513.375 176.938 512.625C174.604 511.875 172.354 510.958 170.188 509.875C168.062 508.75 166.167 507.458 164.5 506L168.375 480.125C170.833 482.5 173.562 484.438 176.562 485.938C179.562 487.396 182.833 488.125 186.375 488.125C188.667 488.125 190.604 487.792 192.188 487.125C193.771 486.458 195.083 485.542 196.125 484.375C197.167 483.208 197.979 481.854 198.562 480.312C199.188 478.729 199.625 477.062 199.875 475.312C200.167 473.521 200.333 471.688 200.375 469.812C200.458 467.938 200.5 466.083 200.5 464.25C200.5 457.625 200.167 451.042 199.5 444.5C198.833 437.917 198.25 431.333 197.75 424.75L226.375 422.875C227.625 435.875 228.25 448.875 228.25 461.875Z" fill="#7FB738"/>
<path d="M311.062 465.5C311.062 469.292 310.625 472.958 309.75 476.5C308.875 480 307.604 483.292 305.938 486.375C304.312 489.458 302.312 492.292 299.938 494.875C297.604 497.417 294.958 499.604 292 501.438C289.083 503.271 285.896 504.708 282.438 505.75C278.979 506.75 275.312 507.25 271.438 507.25C267.688 507.25 264.104 506.771 260.688 505.812C257.312 504.854 254.146 503.521 251.188 501.812C248.229 500.062 245.542 497.979 243.125 495.562C240.75 493.104 238.708 490.396 237 487.438C235.333 484.438 234.021 481.229 233.062 477.812C232.146 474.396 231.688 470.833 231.688 467.125C231.688 463.5 232.125 459.958 233 456.5C233.875 453 235.125 449.708 236.75 446.625C238.417 443.542 240.417 440.708 242.75 438.125C245.083 435.542 247.688 433.312 250.562 431.438C253.479 429.562 256.625 428.104 260 427.062C263.375 426.021 266.938 425.5 270.688 425.5C276.729 425.5 282.229 426.438 287.188 428.312C292.188 430.188 296.438 432.875 299.938 436.375C303.479 439.833 306.208 444.042 308.125 449C310.083 453.917 311.062 459.417 311.062 465.5ZM283.312 467.125C283.312 465.333 283.042 463.604 282.5 461.938C282 460.229 281.25 458.729 280.25 457.438C279.25 456.104 278 455.042 276.5 454.25C275.042 453.417 273.354 453 271.438 453C269.479 453 267.729 453.354 266.188 454.062C264.646 454.771 263.312 455.75 262.188 457C261.104 458.208 260.271 459.646 259.688 461.312C259.104 462.938 258.812 464.667 258.812 466.5C258.812 468.25 259.062 470 259.562 471.75C260.062 473.5 260.812 475.083 261.812 476.5C262.812 477.917 264.042 479.062 265.5 479.938C267 480.812 268.729 481.25 270.688 481.25C272.646 481.25 274.396 480.875 275.938 480.125C277.521 479.333 278.854 478.292 279.938 477C281.021 475.667 281.854 474.146 282.438 472.438C283.021 470.729 283.312 468.958 283.312 467.125Z" fill="#7FB738"/>
<path d="M348.062 425.375L343.688 510.5L317.312 511.875L314.812 427.125L348.062 425.375Z" fill="#7FB738"/>
<path d="M430.75 481.75C430.75 486.458 430.688 491.125 430.562 495.75C430.479 500.333 430.333 504.958 430.125 509.625L394.125 509C395.375 501.625 396.458 494.271 397.375 486.938C398.292 479.562 398.75 472.125 398.75 464.625C398.75 464.083 398.729 463.208 398.688 462C398.646 460.792 398.562 459.438 398.438 457.938C398.312 456.396 398.125 454.833 397.875 453.25C397.667 451.625 397.354 450.146 396.938 448.812C396.562 447.479 396.083 446.396 395.5 445.562C394.958 444.688 394.292 444.25 393.5 444.25C392.083 444.25 390.875 444.667 389.875 445.5C388.917 446.333 388.104 447.417 387.438 448.75C386.812 450.042 386.312 451.5 385.938 453.125C385.562 454.75 385.271 456.375 385.062 458C384.896 459.625 384.771 461.167 384.688 462.625C384.646 464.042 384.625 465.208 384.625 466.125C384.417 473.5 384.25 480.833 384.125 488.125C384 495.375 383.833 502.708 383.625 510.125L351.75 511.5C352.583 496.792 353.375 482.167 354.125 467.625C354.917 453.083 355.542 438.458 356 423.75L385.5 422.25L385.25 432.25C386.417 430.833 387.667 429.5 389 428.25C390.375 427 391.833 425.938 393.375 425.062C394.917 424.146 396.542 423.438 398.25 422.938C400 422.396 401.833 422.125 403.75 422.125C407.292 422.125 410.396 422.708 413.062 423.875C415.729 425.042 418.021 426.625 419.938 428.625C421.854 430.625 423.458 433 424.75 435.75C426.042 438.458 427.083 441.354 427.875 444.438C428.667 447.521 429.271 450.75 429.688 454.125C430.104 457.458 430.375 460.75 430.5 464C430.667 467.25 430.75 470.396 430.75 473.438C430.75 476.479 430.75 479.25 430.75 481.75Z" fill="#7FB738"/>
<path d="M527.875 425.25L527.25 451.75L508.625 452.5L506.375 510.5L480 511.875L477.625 453.875L459 454.875L459.75 425.375L527.875 425.25Z" fill="#7FB738"/>
<path d="M605.625 510.875L574.375 512.375L574.125 486H559.75L558.875 513.375H530.875L533.25 425.5L563 426.875L561.125 471.75H575L575.125 424.75L603.625 425.5L605.625 510.875Z" fill="#7FB738"/>
<path d="M681.312 462.875C681.312 466.5 681.062 470.125 680.562 473.75C673.438 474.208 666.354 474.958 659.312 476C652.271 477 645.229 478 638.188 479C639.271 482 640.958 484.396 643.25 486.188C645.583 487.979 648.354 488.875 651.562 488.875C653.229 488.875 655.042 488.562 657 487.938C659 487.312 660.979 486.542 662.938 485.625C664.896 484.667 666.771 483.646 668.562 482.562C670.354 481.479 671.896 480.5 673.188 479.625L670.188 508C668.562 509.25 666.792 510.312 664.875 511.188C663 512.062 661.042 512.771 659 513.312C656.958 513.854 654.896 514.25 652.812 514.5C650.729 514.75 648.688 514.875 646.688 514.875C642.562 514.875 638.792 514.312 635.375 513.188C631.958 512.062 628.854 510.5 626.062 508.5C623.312 506.458 620.896 504.062 618.812 501.312C616.729 498.562 615 495.562 613.625 492.312C612.25 489.062 611.208 485.625 610.5 482C609.792 478.375 609.438 474.708 609.438 471C609.438 467.125 609.792 463.25 610.5 459.375C611.208 455.5 612.271 451.771 613.688 448.188C615.146 444.604 616.958 441.292 619.125 438.25C621.333 435.167 623.896 432.479 626.812 430.188C629.729 427.896 633.021 426.104 636.688 424.812C640.396 423.521 644.479 422.875 648.938 422.875C652.646 422.875 656.021 423.396 659.062 424.438C662.146 425.438 664.875 426.854 667.25 428.688C669.667 430.479 671.75 432.625 673.5 435.125C675.292 437.625 676.75 440.375 677.875 443.375C679.042 446.333 679.896 449.479 680.438 452.812C681.021 456.104 681.312 459.458 681.312 462.875ZM656.312 459.625C656.312 458.458 656.188 457.271 655.938 456.062C655.688 454.812 655.271 453.688 654.688 452.688C654.146 451.688 653.417 450.875 652.5 450.25C651.583 449.583 650.438 449.25 649.062 449.25C647.396 449.25 645.917 449.708 644.625 450.625C643.375 451.5 642.292 452.625 641.375 454C640.458 455.333 639.708 456.792 639.125 458.375C638.542 459.958 638.104 461.417 637.812 462.75L656.312 461V459.625Z" fill="#7FB738"/>
<path d="M725.562 522L726.188 497.375C724.854 497.125 723.5 496.833 722.125 496.5C720.75 496.125 719.396 495.75 718.062 495.375C716.771 494.958 715.521 494.542 714.312 494.125C713.104 493.708 712.021 493.292 711.062 492.875L713.188 477.5C715.812 478.833 718.75 479.833 722 480.5C725.25 481.167 728.479 481.5 731.688 481.5C732.271 481.5 732.979 481.479 733.812 481.438C734.688 481.396 735.521 481.292 736.312 481.125C737.104 480.917 737.771 480.604 738.312 480.188C738.896 479.771 739.188 479.208 739.188 478.5C739.188 477.75 738.771 477.188 737.938 476.812C737.146 476.396 736.188 476.104 735.062 475.938C733.979 475.729 732.875 475.604 731.75 475.562C730.625 475.521 729.771 475.5 729.188 475.5C726.479 475.5 724.021 475.146 721.812 474.438C719.604 473.729 717.688 472.729 716.062 471.438C714.479 470.104 713.25 468.521 712.375 466.688C711.5 464.854 711.062 462.792 711.062 460.5C711.062 458.375 711.417 456.396 712.125 454.562C712.875 452.729 713.896 451.062 715.188 449.562C716.521 448.062 718.083 446.75 719.875 445.625C721.708 444.458 723.688 443.5 725.812 442.75L724.812 416.375L731.562 417V441.25C732.146 441.125 732.708 441.042 733.25 441C733.792 440.917 734.354 440.833 734.938 440.75L734.812 416.375L741.562 416.5L740.688 440.75C743.438 440.833 746.208 441.104 749 441.562C751.792 441.979 754.354 442.667 756.688 443.625L755.062 459.5C752.854 458.917 750.583 458.417 748.25 458C745.917 457.583 743.688 457.375 741.562 457.375C740.896 457.375 740 457.396 738.875 457.438C737.792 457.479 736.708 457.604 735.625 457.812C734.583 458.021 733.667 458.333 732.875 458.75C732.125 459.167 731.771 459.75 731.812 460.5C731.854 461.125 732.125 461.604 732.625 461.938C733.125 462.229 733.75 462.458 734.5 462.625C735.292 462.75 736.167 462.812 737.125 462.812C738.083 462.812 739 462.792 739.875 462.75C740.792 462.708 741.646 462.667 742.438 462.625C743.229 462.583 743.854 462.583 744.312 462.625C746.812 462.75 749.062 463.188 751.062 463.938C753.062 464.688 754.771 465.708 756.188 467C757.604 468.25 758.688 469.75 759.438 471.5C760.188 473.25 760.562 475.167 760.562 477.25C760.562 480.167 760.062 482.75 759.062 485C758.104 487.25 756.75 489.208 755 490.875C753.25 492.5 751.146 493.854 748.688 494.938C746.271 495.979 743.604 496.75 740.688 497.25L741.688 521.875L735.562 522.5L735.312 497.875C734.729 497.958 734.146 498 733.562 498C732.979 498 732.396 498 731.812 498H731.562L731.688 522.375L725.562 522Z" fill="#508F00"/>
<path d="M845.562 423.875L815.438 465.5L840.812 509.75L811.812 514.875L792.812 487.875L791.812 516.125L765.812 517.125L767.812 421.375L796.938 423L794.688 451.25L814.062 421.375L845.562 423.875Z" fill="#508F00"/>
<path d="M904.125 423.25C903.875 427.167 903.646 431.042 903.438 434.875C903.229 438.708 902.958 442.583 902.625 446.5L876.125 447.875L875.5 455.75H894.125L892.75 475.125L874 475.75L873.375 484.875H899.875C899.625 489.458 899.354 494.021 899.062 498.562C898.812 503.062 898.583 507.583 898.375 512.125L844.5 513.375L846.5 423.25H904.125Z" fill="#508F00"/>
<path d="M979.562 453.125C979.562 456.375 979.271 459.333 978.688 462C978.146 464.625 977.271 467.042 976.062 469.25C974.854 471.458 973.292 473.5 971.375 475.375C969.458 477.25 967.146 479.042 964.438 480.75L979.312 507.25L951.188 512.75L941.562 486.125L933.812 486.375L932.688 512.375H905.812C906.021 502.875 906.208 493.417 906.375 484C906.583 474.583 906.812 465.125 907.062 455.625C907.146 450.833 907.229 446.083 907.312 441.375C907.396 436.667 907.562 431.917 907.812 427.125C910.729 426.042 913.604 425.146 916.438 424.438C919.271 423.729 922.104 423.188 924.938 422.812C927.812 422.396 930.708 422.125 933.625 422C936.583 421.833 939.604 421.75 942.688 421.75C947.438 421.75 952.021 422.417 956.438 423.75C960.896 425.042 964.833 427 968.25 429.625C971.667 432.25 974.396 435.521 976.438 439.438C978.521 443.354 979.562 447.917 979.562 453.125ZM951.562 455.125C951.562 453.375 951.312 451.771 950.812 450.312C950.354 448.854 949.646 447.604 948.688 446.562C947.771 445.479 946.604 444.646 945.188 444.062C943.812 443.438 942.188 443.125 940.312 443.125C939.479 443.125 938.667 443.188 937.875 443.312C937.083 443.396 936.312 443.542 935.562 443.75L934.562 467H936.062C937.854 467 939.667 466.771 941.5 466.312C943.375 465.854 945.042 465.146 946.5 464.188C948 463.229 949.208 462 950.125 460.5C951.083 459 951.562 457.208 951.562 455.125Z" fill="#508F00"/>
<path d="M1080.56 422.25L1074.81 514L1046.31 515.25L1046.56 466.875L1033.69 505.875H1022.69L1012.81 471L1012.69 511.5L983.812 512.375L985.062 426L1017.19 424.75L1029.94 466.125L1046.94 422.25H1080.56Z" fill="#508F00"/>
<path d="M1118.94 425.375L1112.06 510.5L1085.69 511.875V427.125L1118.94 425.375Z" fill="#508F00"/>
<path d="M1189.38 424L1188.75 450.5L1170.12 451.25L1165.38 510.5L1139 511.875L1139.12 452.625L1120.5 453.625L1121.25 424.125L1189.38 424Z" fill="#508F00"/>
<path d="M360.625 556L358.375 582.375C357.167 582.042 355.979 581.812 354.812 581.688C353.646 581.562 352.458 581.5 351.25 581.5C348.292 581.5 345.458 581.875 342.75 582.625C340.083 583.375 337.708 584.521 335.625 586.062C333.583 587.604 331.938 589.562 330.688 591.938C329.479 594.271 328.875 597.042 328.875 600.25C328.875 602.583 329.208 604.625 329.875 606.375C330.583 608.083 331.562 609.521 332.812 610.688C334.104 611.812 335.646 612.667 337.438 613.25C339.271 613.833 341.292 614.125 343.5 614.125C345.042 614.125 346.625 613.979 348.25 613.688C349.875 613.354 351.5 612.917 353.125 612.375C354.75 611.833 356.312 611.208 357.812 610.5C359.312 609.792 360.708 609.042 362 608.25L361 637.625C359.375 638.458 357.625 639.208 355.75 639.875C353.875 640.5 351.938 641.042 349.938 641.5C347.979 642 346 642.375 344 642.625C342.042 642.875 340.167 643 338.375 643C332.458 643 327.062 641.896 322.188 639.688C317.354 637.479 313.188 634.479 309.688 630.688C306.229 626.854 303.542 622.417 301.625 617.375C299.708 612.333 298.75 606.958 298.75 601.25C298.75 594.417 299.708 588.042 301.625 582.125C303.583 576.208 306.438 571.083 310.188 566.75C313.979 562.375 318.646 558.958 324.188 556.5C329.771 554 336.167 552.75 343.375 552.75C346.25 552.75 349.167 552.979 352.125 553.438C355.083 553.896 357.917 554.75 360.625 556Z" fill="#7FB738"/>
<path d="M442.75 593.5C442.75 597.292 442.312 600.958 441.438 604.5C440.562 608 439.292 611.292 437.625 614.375C436 617.458 434 620.292 431.625 622.875C429.292 625.417 426.646 627.604 423.688 629.438C420.771 631.271 417.583 632.708 414.125 633.75C410.667 634.75 407 635.25 403.125 635.25C399.375 635.25 395.792 634.771 392.375 633.812C389 632.854 385.833 631.521 382.875 629.812C379.917 628.062 377.229 625.979 374.812 623.562C372.438 621.104 370.396 618.396 368.688 615.438C367.021 612.438 365.708 609.229 364.75 605.812C363.833 602.396 363.375 598.833 363.375 595.125C363.375 591.5 363.812 587.958 364.688 584.5C365.562 581 366.812 577.708 368.438 574.625C370.104 571.542 372.104 568.708 374.438 566.125C376.771 563.542 379.375 561.312 382.25 559.438C385.167 557.562 388.312 556.104 391.688 555.062C395.062 554.021 398.625 553.5 402.375 553.5C408.417 553.5 413.917 554.438 418.875 556.312C423.875 558.188 428.125 560.875 431.625 564.375C435.167 567.833 437.896 572.042 439.812 577C441.771 581.917 442.75 587.417 442.75 593.5ZM415 595.125C415 593.333 414.729 591.604 414.188 589.938C413.688 588.229 412.938 586.729 411.938 585.438C410.938 584.104 409.688 583.042 408.188 582.25C406.729 581.417 405.042 581 403.125 581C401.167 581 399.417 581.354 397.875 582.062C396.333 582.771 395 583.75 393.875 585C392.792 586.208 391.958 587.646 391.375 589.312C390.792 590.938 390.5 592.667 390.5 594.5C390.5 596.25 390.75 598 391.25 599.75C391.75 601.5 392.5 603.083 393.5 604.5C394.5 605.917 395.729 607.062 397.188 607.938C398.688 608.812 400.417 609.25 402.375 609.25C404.333 609.25 406.083 608.875 407.625 608.125C409.208 607.333 410.542 606.292 411.625 605C412.708 603.667 413.542 602.146 414.125 600.438C414.708 598.729 415 596.958 415 595.125Z" fill="#7FB738"/>
<path d="M555.25 599C555.25 604.958 555.062 610.896 554.688 616.812C554.312 622.729 553.875 628.667 553.375 634.625L521.25 636.125C522.208 628.875 523.062 621.625 523.812 614.375C524.604 607.083 525 599.792 525 592.5C525 592.042 524.979 591.25 524.938 590.125C524.896 588.958 524.812 587.646 524.688 586.188C524.604 584.729 524.458 583.229 524.25 581.688C524.083 580.104 523.833 578.667 523.5 577.375C523.208 576.042 522.833 574.958 522.375 574.125C521.917 573.292 521.375 572.875 520.75 572.875C519.292 572.875 518.146 573.438 517.312 574.562C516.479 575.646 515.854 576.958 515.438 578.5C515.062 580.042 514.833 581.625 514.75 583.25C514.667 584.833 514.625 586.125 514.625 587.125C514.625 588.875 514.667 590.625 514.75 592.375C514.833 594.125 514.875 595.917 514.875 597.75C514.875 604.208 514.708 610.646 514.375 617.062C514.083 623.479 513.708 629.917 513.25 636.375L483.625 637.5C484.583 630.25 485.417 623.021 486.125 615.812C486.875 608.562 487.25 601.292 487.25 594C487.25 593.542 487.229 592.708 487.188 591.5C487.146 590.292 487.062 588.938 486.938 587.438C486.854 585.938 486.708 584.375 486.5 582.75C486.292 581.125 486.021 579.646 485.688 578.312C485.396 576.938 485.021 575.812 484.562 574.938C484.104 574.062 483.542 573.625 482.875 573.625C481.833 573.625 480.958 574.042 480.25 574.875C479.542 575.667 478.958 576.708 478.5 578C478.083 579.292 477.75 580.729 477.5 582.312C477.292 583.854 477.125 585.375 477 586.875C476.917 588.375 476.854 589.771 476.812 591.062C476.812 592.312 476.792 593.25 476.75 593.875L475.375 639.5H443.875C444.542 632.458 445.208 625.396 445.875 618.312C446.583 611.229 447.188 604.167 447.688 597.125C448.229 590.042 448.667 582.958 449 575.875C449.333 568.792 449.5 561.708 449.5 554.625L479.25 553.375L479.125 560.625C480.042 559.458 481.083 558.292 482.25 557.125C483.417 555.917 484.646 554.854 485.938 553.938C487.271 552.979 488.667 552.208 490.125 551.625C491.625 551.042 493.167 550.75 494.75 550.75C496.792 550.75 498.625 550.917 500.25 551.25C501.875 551.542 503.333 552.062 504.625 552.812C505.958 553.562 507.125 554.604 508.125 555.938C509.125 557.229 510 558.875 510.75 560.875C512.083 559.417 513.417 558.062 514.75 556.812C516.125 555.562 517.562 554.5 519.062 553.625C520.562 552.708 522.188 552 523.938 551.5C525.688 551 527.625 550.75 529.75 550.75C533.792 550.75 537.229 551.542 540.062 553.125C542.896 554.667 545.25 556.729 547.125 559.312C549.042 561.896 550.521 564.854 551.562 568.188C552.646 571.521 553.458 574.979 554 578.562C554.542 582.146 554.875 585.708 555 589.25C555.167 592.792 555.25 596.042 555.25 599Z" fill="#7FB738"/>
<path d="M670.25 599C670.25 604.958 670.062 610.896 669.688 616.812C669.312 622.729 668.875 628.667 668.375 634.625L636.25 636.125C637.208 628.875 638.062 621.625 638.812 614.375C639.604 607.083 640 599.792 640 592.5C640 592.042 639.979 591.25 639.938 590.125C639.896 588.958 639.812 587.646 639.688 586.188C639.604 584.729 639.458 583.229 639.25 581.688C639.083 580.104 638.833 578.667 638.5 577.375C638.208 576.042 637.833 574.958 637.375 574.125C636.917 573.292 636.375 572.875 635.75 572.875C634.292 572.875 633.146 573.438 632.312 574.562C631.479 575.646 630.854 576.958 630.438 578.5C630.062 580.042 629.833 581.625 629.75 583.25C629.667 584.833 629.625 586.125 629.625 587.125C629.625 588.875 629.667 590.625 629.75 592.375C629.833 594.125 629.875 595.917 629.875 597.75C629.875 604.208 629.708 610.646 629.375 617.062C629.083 623.479 628.708 629.917 628.25 636.375L598.625 637.5C599.583 630.25 600.417 623.021 601.125 615.812C601.875 608.562 602.25 601.292 602.25 594C602.25 593.542 602.229 592.708 602.188 591.5C602.146 590.292 602.062 588.938 601.938 587.438C601.854 585.938 601.708 584.375 601.5 582.75C601.292 581.125 601.021 579.646 600.688 578.312C600.396 576.938 600.021 575.812 599.562 574.938C599.104 574.062 598.542 573.625 597.875 573.625C596.833 573.625 595.958 574.042 595.25 574.875C594.542 575.667 593.958 576.708 593.5 578C593.083 579.292 592.75 580.729 592.5 582.312C592.292 583.854 592.125 585.375 592 586.875C591.917 588.375 591.854 589.771 591.812 591.062C591.812 592.312 591.792 593.25 591.75 593.875L590.375 639.5H558.875C559.542 632.458 560.208 625.396 560.875 618.312C561.583 611.229 562.188 604.167 562.688 597.125C563.229 590.042 563.667 582.958 564 575.875C564.333 568.792 564.5 561.708 564.5 554.625L594.25 553.375L594.125 560.625C595.042 559.458 596.083 558.292 597.25 557.125C598.417 555.917 599.646 554.854 600.938 553.938C602.271 552.979 603.667 552.208 605.125 551.625C606.625 551.042 608.167 550.75 609.75 550.75C611.792 550.75 613.625 550.917 615.25 551.25C616.875 551.542 618.333 552.062 619.625 552.812C620.958 553.562 622.125 554.604 623.125 555.938C624.125 557.229 625 558.875 625.75 560.875C627.083 559.417 628.417 558.062 629.75 556.812C631.125 555.562 632.562 554.5 634.062 553.625C635.562 552.708 637.188 552 638.938 551.5C640.688 551 642.625 550.75 644.75 550.75C648.792 550.75 652.229 551.542 655.062 553.125C657.896 554.667 660.25 556.729 662.125 559.312C664.042 561.896 665.521 564.854 666.562 568.188C667.646 571.521 668.458 574.979 669 578.562C669.542 582.146 669.875 585.708 670 589.25C670.167 592.792 670.25 596.042 670.25 599Z" fill="#7FB738"/>
<path d="M750.5 553.375C748.625 568.042 747.021 582.646 745.688 597.188C744.354 611.688 743.083 626.292 741.875 641L716.25 642.875L717.375 633.25C716.542 634.208 715.562 635.042 714.438 635.75C713.354 636.458 712.188 637.042 710.938 637.5C709.688 637.917 708.396 638.229 707.062 638.438C705.729 638.604 704.458 638.667 703.25 638.625C700.417 638.583 697.75 638.042 695.25 637C692.75 635.917 690.458 634.5 688.375 632.75C686.292 630.958 684.417 628.896 682.75 626.562C681.083 624.188 679.667 621.708 678.5 619.125C677.375 616.5 676.5 613.833 675.875 611.125C675.292 608.417 675 605.792 675 603.25C675 599.5 675.062 595.625 675.188 591.625C675.354 587.583 675.625 583.542 676 579.5C676.375 575.458 676.854 571.458 677.438 567.5C678.062 563.542 678.833 559.75 679.75 556.125C684.833 556.375 689.938 556.604 695.062 556.812C700.188 557.021 705.292 557.083 710.375 557C709.417 560.625 708.458 564.271 707.5 567.938C706.583 571.562 705.75 575.229 705 578.938C704.25 582.604 703.646 586.292 703.188 590C702.729 593.708 702.5 597.458 702.5 601.25C702.5 602.125 702.542 603.375 702.625 605C702.708 606.625 702.917 608.229 703.25 609.812C703.625 611.396 704.167 612.792 704.875 614C705.625 615.167 706.667 615.75 708 615.75C709.583 615.75 711 615.083 712.25 613.75C713.5 612.375 714.604 610.542 715.562 608.25C716.521 605.958 717.333 603.312 718 600.312C718.708 597.312 719.292 594.188 719.75 590.938C720.25 587.646 720.646 584.333 720.938 581C721.229 577.667 721.438 574.542 721.562 571.625C721.729 568.667 721.833 566.021 721.875 563.688C721.958 561.354 722 559.542 722 558.25C722 557.417 721.979 556.604 721.938 555.812C721.896 555.021 721.833 554.208 721.75 553.375C724.458 553.458 727.146 553.521 729.812 553.562C732.479 553.604 735.167 553.625 737.875 553.625C739.958 553.625 742.042 553.625 744.125 553.625C746.25 553.583 748.375 553.5 750.5 553.375Z" fill="#7FB738"/>
<path d="M831.812 609.75C831.812 614.458 831.75 619.125 831.625 623.75C831.542 628.333 831.396 632.958 831.188 637.625L795.188 637C796.438 629.625 797.521 622.271 798.438 614.938C799.354 607.562 799.812 600.125 799.812 592.625C799.812 592.083 799.792 591.208 799.75 590C799.708 588.792 799.625 587.438 799.5 585.938C799.375 584.396 799.188 582.833 798.938 581.25C798.729 579.625 798.417 578.146 798 576.812C797.625 575.479 797.146 574.396 796.562 573.562C796.021 572.688 795.354 572.25 794.562 572.25C793.146 572.25 791.938 572.667 790.938 573.5C789.979 574.333 789.167 575.417 788.5 576.75C787.875 578.042 787.375 579.5 787 581.125C786.625 582.75 786.333 584.375 786.125 586C785.958 587.625 785.833 589.167 785.75 590.625C785.708 592.042 785.688 593.208 785.688 594.125C785.479 601.5 785.312 608.833 785.188 616.125C785.062 623.375 784.896 630.708 784.688 638.125L752.812 639.5C753.646 624.792 754.438 610.167 755.188 595.625C755.979 581.083 756.604 566.458 757.062 551.75L786.562 550.25L786.312 560.25C787.479 558.833 788.729 557.5 790.062 556.25C791.438 555 792.896 553.938 794.438 553.062C795.979 552.146 797.604 551.438 799.312 550.938C801.062 550.396 802.896 550.125 804.812 550.125C808.354 550.125 811.458 550.708 814.125 551.875C816.792 553.042 819.083 554.625 821 556.625C822.917 558.625 824.521 561 825.812 563.75C827.104 566.458 828.146 569.354 828.938 572.438C829.729 575.521 830.333 578.75 830.75 582.125C831.167 585.458 831.438 588.75 831.562 592C831.729 595.25 831.812 598.396 831.812 601.438C831.812 604.479 831.812 607.25 831.812 609.75Z" fill="#7FB738"/>
<path d="M870.375 553.375L866 638.5L839.625 639.875L837.125 555.125L870.375 553.375Z" fill="#7FB738"/>
<path d="M941.688 553.25L941.062 579.75L922.438 580.5L920.188 638.5L893.812 639.875L891.438 581.875L872.812 582.875L873.562 553.375L941.688 553.25Z" fill="#7FB738"/>
<path d="M1022.31 556.75L992.938 604.75L993.812 640.125H961.688L962.438 605L939.562 558.625L971.438 554.625L981.438 581.625L992.312 554.625L1022.31 556.75Z" fill="#7FB738"/>
<path d="M1055.25 548.5L1050.12 614.25H1027L1024.62 548.5H1055.25ZM1051.12 633.5C1051.12 635.333 1050.77 637.042 1050.06 638.625C1049.35 640.208 1048.4 641.583 1047.19 642.75C1046.02 643.958 1044.65 644.896 1043.06 645.562C1041.48 646.271 1039.79 646.625 1038 646.625C1036.17 646.625 1034.46 646.271 1032.88 645.562C1031.29 644.896 1029.9 643.958 1028.69 642.75C1027.52 641.583 1026.58 640.208 1025.88 638.625C1025.21 637.042 1024.88 635.333 1024.88 633.5C1024.88 631.708 1025.21 630 1025.88 628.375C1026.58 626.75 1027.52 625.354 1028.69 624.188C1029.9 622.979 1031.29 622.021 1032.88 621.312C1034.46 620.604 1036.17 620.25 1038 620.25C1039.79 620.25 1041.48 620.604 1043.06 621.312C1044.65 622.021 1046.02 622.979 1047.19 624.188C1048.4 625.354 1049.35 626.75 1050.06 628.375C1050.77 630 1051.12 631.708 1051.12 633.5Z" fill="#7FB738"/>
</svg>
